PathFileType	4	(X/Y/Z)	C:/Users/opensim2020/Desktop/walking_exp_matlab/subject01_walking04_straight_02.trc																																																																																																																															
DataRate	CameraRate	NumFrames	NumMarkers	Units	OrigDataRate	OrigDataStartFrame	OrigNumFrames																																																																																																																											
100	100	8	43	mm	100	1515	261																																																																																																																											
Frame#	Time	LFHD			RFHD			LBHD			RBHD			C7			T10			CLAV			STRN			RBAK			LSHO			LUPA			LELB			LFRM			LWRA			LWRB			LFIN			RSHO			RUPA			RELB			RFRM			RWRA			RWRB			RFIN			LASI			RASI			LPSI			RPSI			LTHI			LKNE			LTIB			LANK			LHEE			LTOE			RTHI			RKNE			RTIB			RANK			RHEE			RTOE			*39			*40			*41			*42		
		X1	Y1	Z1	X2	Y2	Z2	X3	Y3	Z3	X4	Y4	Z4	X5	Y5	Z5	X6	Y6	Z6	X7	Y7	Z7	X8	Y8	Z8	X9	Y9	Z9	X10	Y10	Z10	X11	Y11	Z11	X12	Y12	Z12	X13	Y13	Z13	X14	Y14	Z14	X15	Y15	Z15	X16	Y16	Z16	X17	Y17	Z17	X18	Y18	Z18	X19	Y19	Z19	X20	Y20	Z20	X21	Y21	Z21	X22	Y22	Z22	X23	Y23	Z23	X24	Y24	Z24	X25	Y25	Z25	X26	Y26	Z26	X27	Y27	Z27	X28	Y28	Z28	X29	Y29	Z29	X30	Y30	Z30	X31	Y31	Z31	X32	Y32	Z32	X33	Y33	Z33	X34	Y34	Z34	X35	Y35	Z35	X36	Y36	Z36	X37	Y37	Z37	X38	Y38	Z38	X39	Y39	Z39	X40	Y40	Z40	X41	Y41	Z41	X42	Y42	Z42	X43	Y43	Z43
																																																																																																																																		
98	0.97	-831.20197	1673.08667	-1532.63501	-813.15497	1679.7749	-1420.04346	-948.12433	1630.59497	-1519.00049	-933.50037	1637.09851	-1400.02942	-993.12439	1439.59644	-1478.83008	-1030.57654	1147.19067	-1455.61682	-851.89801	1369.98254	-1471.50891	-809.15833	1215.74036	-1467.90833	-1050.19824	1247.5531	-1394.0697	-907.58795	1390.22205	-1635.04517	-916.86548	1205.79053	-1720.96582	-900.75934	1053.87659	-1729.63074	-820.43646	969.99359	-1754.93604	-699.38269	900.84827	-1736.42737	-747.11737	872.84454	-1760.58264	-674.49518	830.98962	-1771.15015	-917.86554	1404.50452	-1322.28284	-990.7337	1212.04919	-1217.36682	-999.27667	1088.1543	-1210.58386	-984.1322	970.4223	-1173.7926	-914.00177	846.52985	-1183.94629	-959.81146	852.7522	-1146.65552	-928.69421	772.73743	-1144.45239	-855.2868	938.79926	-1554.55676	-854.22327	945.02087	-1338.46631	-1040.97888	954.16949	-1497.54065	-1035.59973	953.80011	-1351.55225	-907.62604	606.76752	-1598.97498	-928.54498	472.89597	-1579.67371	-1000.25354	295.16199	-1580.84802	-1044.57678	81.41727	-1520.75842	-1087.90723	56.99165	-1463.80017	-898.97852	37.72228	-1530.08081	-812.20703	623.92651	-1271.69385	-766.92798	471.57172	-1296.33826	-872.5542	329.36899	-1298.12573	-971.14526	150.86659	-1349.82056	-1025.63318	131.20204	-1406.42761	-863.10156	60.31451	-1339.03625	-825.28894	1713.88	-1442.61572	-1973.05762	1023.8811	3101.94995	-2012.53345	1021.86652	3140.61841	NaN	NaN	NaN
99	0.98	-821.68048	1672.89746	-1532.8335	-803.58167	1679.47949	-1420.33496	-938.64111	1630.4126	-1519.30859	-923.97675	1636.83203	-1400.40466	-983.56079	1439.40271	-1479.28723	-1021.26141	1147.01086	-1456.21875	-842.43201	1369.64221	-1471.86658	-799.79327	1215.31482	-1468.59277	-1040.73694	1247.27002	-1394.7832	-897.94971	1390.17847	-1635.50635	-906.62598	1205.79346	-1721.44116	-889.05377	1054.02112	-1730.68689	-806.77191	971.9137	-1756.02661	-683.90259	906.0387	-1737.63098	-730.9895	876.76666	-1761.6355	-657.19769	836.96356	-1772.47327	-908.22308	1404.04675	-1322.63733	-982.07953	1211.81702	-1218.17969	-991.01337	1087.99402	-1211.40601	-977.48065	970.35345	-1174.63745	-908.87872	845.37134	-1184.20105	-954.77393	852.38092	-1147.43335	-924.84265	771.46472	-1145.18335	-846.54291	937.88239	-1555.35034	-844.72467	944.93481	-1339.32898	-1032.03308	953.76727	-1497.86133	-1026.30237	953.59509	-1351.88611	-901.9895	606.52808	-1599.01013	-925.06299	472.81604	-1580.00891	-998.30359	295.70828	-1580.87854	-1044.01245	81.93398	-1520.33911	-1087.38489	58.08688	-1463.43677	-898.58771	37.51305	-1529.81836	-800.83704	624.56445	-1272.46143	-754.14508	472.32663	-1297.92725	-852.67261	324.86935	-1298.74231	-941.71417	141.11478	-1349.72314	-995.09369	118.05228	-1406.14575	-828.18738	57.515	-1338.34753	-815.74109	1713.5426	-1442.71716	-1973.10632	1023.38202	3102.00317	-2012.46545	1022.04169	3140.62915	NaN	NaN	NaN
100	0.99	-812.11023	1672.65271	-1533.02161	-793.97858	1679.13965	-1420.48633	-929.09827	1630.17712	-1519.50708	-914.31305	1636.33472	-1400.54346	-973.93707	1439.10632	-1479.61206	-1011.89038	1146.74573	-1456.67065	-832.72882	1369.30176	-1472.33496	-790.27325	1214.77588	-1469.21899	-1031.20923	1246.93762	-1395.42102	-888.3197	1390.026	-1635.86902	-896.29358	1205.63867	-1721.8009	-877.32593	1054.16138	-1731.6416	-793.25592	973.82849	-1756.96777	-668.76904	911.1001	-1738.65051	-715.11102	880.60815	-1762.57007	-640.33844	842.82446	-1773.60254	-898.5155	1403.44958	-1322.9834	-972.93945	1211.24182	-1218.76685	-982.75085	1087.79895	-1212.1283	-970.26526	969.89093	-1175.10376	-903.62714	844.21033	-1184.5918	-949.50806	851.85596	-1147.75745	-920.86609	770.40491	-1145.80701	-837.74695	936.98645	-1556.23108	-834.51599	944.84125	-1339.94031	-1023.06287	953.32654	-1498.11877	-1016.68622	953.1441	-1352.12854	-896.3172	606.35571	-1599.14941	-921.51904	472.84409	-1580.37231	-996.44983	296.37338	-1580.95227	-1043.74426	83.05215	-1520.40295	-1086.94751	59.24815	-1463.15027	-898.43134	37.45129	-1529.875	-789.69299	625.33521	-1273.49146	-741.87952	473.14709	-1299.15405	-832.95911	320.43082	-1299.08728	-911.06592	131.54813	-1349.24084	-963.53033	105.1077	-1405.56213	-793.09424	55.27876	-1337.37537	-806.19525	1713.18506	-1442.86499	-1973.1842	1023.28644	3102.00781	-2012.50427	1021.95496	3140.68115	NaN	NaN	NaN
101	1	-802.54126	1672.34753	-1533.15918	-784.44568	1678.72974	-1420.60828	-919.49866	1629.84412	-1519.58154	-904.68005	1635.93982	-1400.60034	-964.26251	1438.78931	-1479.82349	-1002.42163	1146.45056	-1456.91016	-823.10272	1368.83618	-1472.65442	-780.76147	1214.26062	-1469.71606	-1021.66309	1246.52515	-1395.93225	-878.6059	1389.74805	-1636.07288	-885.99261	1205.54639	-1722.12817	-865.67938	1054.24451	-1732.56128	-779.62225	975.66016	-1757.61548	-653.87079	915.97369	-1739.45837	-699.51788	884.40698	-1763.32385	-623.79968	848.5575	-1774.59338	-888.90881	1402.94775	-1323.27319	-963.92993	1210.77075	-1219.30237	-974.39404	1087.50232	-1212.75623	-963.26721	969.70636	-1175.63989	-898.04199	842.96423	-1184.97571	-944.20801	851.50348	-1148.31653	-916.3927	769.28015	-1146.29688	-828.99524	936.09125	-1556.94141	-824.86273	944.49329	-1340.60645	-1014.02002	952.8598	-1498.25781	-1007.37286	952.7804	-1352.38623	-890.67267	606.06384	-1599.04175	-918.02802	472.89926	-1580.62817	-994.58868	297.18918	-1581.06543	-1043.08704	83.70313	-1520.15259	-1086.69543	60.65738	-1463.15613	-898.3288	37.38439	-1529.79639	-779.09174	625.02167	-1274.09985	-730.66309	473.33957	-1300.29443	-813.74524	316.18341	-1298.86548	-880.50189	122.38831	-1348.39587	-929.53882	93.1211	-1404.27332	-757.63702	53.70705	-1336.60925	-796.51465	1712.81848	-1442.99097	-1973.15051	1023.2616	3101.9231	-2012.55786	1021.95825	3140.66284	NaN	NaN	NaN
102	1.01	-792.87207	1671.94434	-1533.10327	-774.83447	1678.1875	-1420.5874	-909.8678	1629.44006	-1519.6571	-895.02698	1635.44983	-1400.57605	-954.49579	1438.39221	-1479.92578	-992.99011	1146.09143	-1456.98413	-813.42236	1368.25256	-1472.80469	-771.17847	1213.62634	-1470.10828	-1012.00049	1246.07141	-1396.24707	-868.94537	1389.49414	-1636.27356	-875.62787	1205.44727	-1722.59155	-854.04761	1054.26709	-1733.28809	-766.3197	977.51013	-1758.36023	-639.43481	920.79321	-1740.24451	-684.20935	888.0614	-1764.03345	-607.67004	854.06403	-1775.47803	-879.08356	1402.21973	-1323.31006	-954.87988	1210.24951	-1219.65271	-966.15686	1087.20728	-1213.30444	-955.97687	969.26453	-1176.08447	-892.27417	841.89569	-1185.37146	-938.09741	850.77258	-1148.44568	-911.5481	768.26715	-1146.8905	-820.15778	935.20386	-1557.56616	-815.17822	943.99805	-1341.04358	-1004.93591	952.4137	-1498.25659	-997.85608	952.29956	-1352.4613	-885.25952	605.79187	-1598.97034	-914.37158	472.92383	-1580.80688	-992.64435	297.95612	-1581.1228	-1042.78674	84.93947	-1520.2821	-1086.28149	62.01878	-1463.05066	-898.31537	37.44357	-1529.927	-769.1167	624.75958	-1274.84741	-720.11957	473.31024	-1301.46448	-794.43066	312.13614	-1298.67725	-849.1709	113.96666	-1347.1875	-896.76093	81.83434	-1402.87891	-722.20697	52.7378	-1335.77332	-786.86462	1712.29309	-1442.90479	-1973.0387	1023.74945	3101.99976	-2012.55017	1021.89227	3140.69604	NaN	NaN	NaN
103	1.02	-783.25311	1671.52893	-1533.08191	-765.18713	1677.58777	-1420.47021	-900.16699	1628.96545	-1519.5387	-885.3302	1634.84546	-1400.521	-944.70953	1437.89319	-1479.93848	-983.42035	1145.66064	-1456.89954	-803.5835	1367.67603	-1472.96033	-761.58276	1212.95483	-1470.51843	-1002.34735	1245.53125	-1396.44312	-859.26404	1389.104	-1636.33667	-865.30066	1205.22534	-1722.79736	-842.46527	1054.24585	-1733.93164	-753.14929	979.20007	-1758.88953	-625.12634	925.11047	-1740.69739	-669.23187	891.51923	-1764.63464	-591.96735	859.37805	-1776.11096	-869.19678	1401.5365	-1323.26514	-945.78766	1209.72119	-1219.99475	-957.74139	1086.82373	-1213.72534	-948.73889	969.02704	-1176.54602	-886.3045	840.83307	-1185.72791	-931.82996	850.19354	-1148.84973	-906.39117	767.42493	-1147.41138	-811.29944	934.52338	-1558.31458	-805.31976	943.40887	-1341.52148	-995.69049	951.93536	-1498.05249	-988.23065	951.79993	-1352.36902	-879.7926	605.52893	-1599.14368	-910.74738	473.01102	-1580.97644	-990.58728	298.90219	-1581.29346	-1042.27637	86.00148	-1520.28149	-1085.85217	63.45081	-1463.02527	-898.26685	37.43027	-1530.00305	-760.08331	624.02649	-1275.88367	-710.43542	473.11545	-1302.95129	-776.08881	308.61761	-1298.17993	-817.59039	106.29197	-1345.8783	-863.62482	71.57862	-1401.0835	-686.98584	52.41998	-1335.19641	-777.59491	1711.58667	-1442.95935	-1973.24731	1023.48328	3101.95508	-2012.51404	1021.93683	3140.7356	NaN	NaN	NaN
104	1.03	-773.57166	1670.99048	-1532.91125	-755.4975	1677.02124	-1420.31873	-890.6037	1628.46875	-1519.54834	-875.60815	1634.22205	-1400.43286	-934.86731	1437.31238	-1479.81299	-973.79303	1145.15576	-1456.66614	-793.78583	1366.99219	-1472.92285	-751.91986	1212.30286	-1470.84558	-992.5426	1244.88562	-1396.45349	-849.62866	1388.65662	-1636.30505	-854.86572	1204.98828	-1723.10229	-830.93506	1054.1803	-1734.39404	-740.21832	980.89447	-1759.37219	-611.18066	929.31207	-1741.09668	-654.66968	894.96936	-1765.3927	-576.57727	864.25476	-1776.55212	-859.32806	1400.87439	-1323.2323	-936.54706	1209.21118	-1220.1156	-949.16571	1086.49707	-1213.96301	-941.34503	968.58014	-1176.93018	-879.99811	839.83813	-1186.07422	-925.2948	849.55786	-1149.19312	-900.85211	766.52972	-1147.77576	-802.28741	933.74084	-1558.82202	-795.24628	942.74176	-1341.90527	-986.32983	951.5094	-1497.6875	-978.45142	951.25916	-1352.18225	-874.65222	605.37305	-1599.21741	-907.04449	473.16653	-1581.10828	-988.32959	299.76419	-1581.29651	-1041.75122	87.08864	-1520.23462	-1085.51221	65.11966	-1463.21387	-898.13519	37.43942	-1530.03699	-751.29706	622.78473	-1276.78345	-701.00299	472.59875	-1304.25818	-757.98889	305.7114	-1297.80908	-786.24939	99.988	-1343.91931	-830.41895	62.69318	-1399.06726	-652.29169	52.86901	-1334.81348	-767.55579	1711.19885	-1442.65796	-1972.95618	1023.72015	3102.05518	-2012.4917	1021.92047	3140.67383	NaN	NaN	NaN
105	1.04	-763.89972	1670.34753	-1532.63123	-745.79132	1676.37683	-1420.06152	-880.90161	1627.76038	-1519.33179	-865.93231	1633.39929	-1400.15417	-925.00238	1436.60583	-1479.52612	-964.04071	1144.54639	-1456.27051	-783.88757	1366.28381	-1472.8656	-742.17981	1211.46423	-1471.05164	-982.66217	1244.15771	-1396.25427	-839.92841	1388.08618	-1636.11084	-844.46381	1204.61108	-1723.08386	-819.54016	1054.07202	-1734.83386	-727.43414	982.38562	-1759.67249	-597.52094	933.25598	-1741.37134	-640.27008	897.96008	-1765.39697	-561.80713	869.05176	-1777.10522	-849.31769	1400.07349	-1323.09155	-927.37799	1208.60986	-1220.23157	-940.62573	1086.05347	-1214.17981	-933.72198	968.09167	-1177.0957	-873.52606	838.90686	-1186.38464	-918.77484	848.96423	-1149.3219	-894.8811	765.62897	-1148.21423	-793.10181	933.11627	-1559.28748	-784.99884	942.06195	-1342.23962	-976.86365	951.06183	-1497.14868	-968.40265	950.66101	-1351.81177	-869.48792	605.37415	-1599.63794	-903.33038	473.39182	-1581.28845	-985.95715	300.66238	-1581.27405	-1041.10803	88.16834	-1520.16772	-1085.11133	66.74303	-1463.25659	-898.02319	37.38092	-1530.03796	-743.80304	621.16473	-1277.60852	-692.14606	471.87619	-1305.3927	-740.4422	302.67593	-1297.48059	-754.21674	94.7103	-1342.97668	-797.60815	55.00832	-1396.86035	-618.0827	54.74422	-1334.57166	-757.91974	1710.58215	-1442.36548	-1973.06396	1023.42047	3101.94629	-2012.54236	1021.9054	3140.59033	NaN	NaN	NaN
